<svg xmlns="http://www.w3.org/2000/svg" xmlns:xlink="http://www.w3.org/1999/xlink" id="Layer_1" width="50" height="50" x="0" y="0" enable-background="new 0 0 50 50" version="1.1" viewBox="0 0 50 50" xml:space="preserve"><polygon fill="#804998" points="17.7 23.411 12.811 18.256 16.789 18.256 23.333 24.978 16.822 31.667 12.844 31.667 17.7 26.511 0 26.511 0 23.411"/><polygon fill="#59B4D9" points="44.367 23.411 39.478 18.256 43.456 18.256 50 24.978 43.489 31.667 39.511 31.667 44.367 26.511 26.667 26.511 26.667 23.411"/><polygon fill="#A0A1A2" points="36.667 40.889 5.556 40.889 5.556 30.556 10 30.556 10 36.444 32.222 36.444 32.222 30.556 36.667 30.556"/><polygon fill="#A0A1A2" points="36.667 19.444 32.222 19.444 32.222 12.444 10 12.444 10 19.444 5.556 19.444 5.556 8 36.667 8"/></svg>