<svg xmlns="http://www.w3.org/2000/svg" xmlns:xlink="http://www.w3.org/1999/xlink" id="Layer_1" width="50" height="50" x="0" y="0" enable-background="new 0 0 50 50" version="1.1" viewBox="0 0 50 50" xml:space="preserve"><path fill="#3999C6" d="M0,45c0,1.1,0.9,2,2,2h46c1.1,0,2-0.9,2-2V11.6H0V45z"/><path fill="#A0A1A2" d="M48,3H2C0.9,3,0,3.9,0,5v7.3h50V5C50,3.9,49.1,3,48,3z"/><rect width="50" height="3.3" y="12.3" fill="#FFF" opacity=".15"/><path fill="#FFF" d="M2,3C0.9,3,0,3.9,0,5v7.3v3.3V45c0,1.1,0.9,2,2,2h19.2L43.6,3H2z" opacity=".1"/><path fill="#FFF" d="M8.6,23.9l-0.5-0.5C8,23.3,8,23.1,8.1,23l1.4-1.2c0.1-0.1,0.1-0.1,0.2-0.1c0.1,0,0.2,0,0.2,0.1l3.7,4	l6.4-8.1c0.1-0.1,0.2-0.1,0.3-0.1c0.1,0,0.1,0,0.2,0.1l1.5,1.1c0.1,0.1,0.1,0.1,0.1,0.2c0,0.1,0,0.2-0.1,0.2l-8.3,10.5L8.6,23.9z"/><rect width="20" height="3.3" x="22" y="23.9" fill="#FFF" opacity=".6"/><path fill="#FFF" d="M8.6,37l-0.5-0.5c-0.1-0.1-0.1-0.3,0-0.5l1.4-1.2c0.1-0.1,0.1-0.1,0.2-0.1c0.1,0,0.2,0,0.2,0.1l3.7,4	l6.4-8.1c0.1-0.1,0.2-0.1,0.3-0.1c0.1,0,0.1,0,0.2,0.1l1.5,1.1c0.1,0.1,0.1,0.1,0.1,0.2c0,0.1,0,0.2-0.1,0.2l-8.3,10.5L8.6,37z"/><rect width="20" height="3.3" x="22" y="37" fill="#FFF" opacity=".6"/></svg>